<svg xmlns="http://www.w3.org/2000/svg" viewBox="0 0 400 296">
  <defs/>
  <style>
    .st1{fill:#004B85}.st2{fill:#FFC658}.st4{fill:none}.st5{fill:#BF2F38}
  </style>
  <path fill="#FFF" d="M0 0h400v296H0V0z"/>
  <path d="M0 35.9v21h84.3v23.5H30v40.4h50.1v23.6H30v49.4h54.4v23.6H0V242h347.3V36H0zm200.4 133.5c-1.5 29.3-11.3 51.8-44.7 51.8-49.2 0-52.4-31.3-52.4-74v-22.9c1.2-40.8 4.4-71.3 52.3-71.3 26.8.4 41.8 14.1 43.9 41.5.5 4 .8 8.1.7 12.2h-29.5c-1.3-10.3-.2-29.5-15-29.5-23.5 0-21.6 28-21.6 40.4V162c0 13.3 1.1 34.9 21.6 34.9 16.5 0 14.6-26.5 15.2-36.8l30.2.1-.7 9.2z" class="st1"/>
  <path d="M224.4 0h122.8v36H224.4z" class="st2"/>
  <path fill="none" stroke="#FFC658" stroke-linecap="round" stroke-linejoin="round" stroke-width="0" d="M296.8 56.9h.1"/>
  <path d="M296.9 166.2c0 15.4-1.1 30.8-20.6 30.8-20.3 0-21.4-15.4-21.4-30.8V56.9h-30v111.9c0 35.5 11.6 52.4 51.2 52.4 39.1 0 50.7-16.9 50.7-52.4V56.9h-29.9v109.3z" class="st2"/>
  <path d="M8.3 280.6c4.2 0 4.1-1.9 4.1-5.4v-14.6c0-3.6 0-5.6-4.1-5.5v-1.5c2.5 0 4.9 0 7.3.2l15.9-.2.3 7.6H30c-.7-4.3-3.2-5.6-7.3-5.6-.5 0-3.3 0-3.5.5-.1.8-.1 1.6 0 2.5v8c3.5 0 5.7-.7 5.9-4.6h1.7c0 2 0 4-.2 6s.1 3.6.2 5.2h-1.9c-.8-4-1.9-4.7-5.9-4.7v5.1c0 4 0 6.6 5 6.6s6.8-1.5 7.8-6.3h1.7c0 1.6-.1 3.2-.2 4.9 0 1.2.1 2.3.2 3.4-6 0-11.9 0-17.9-.2-2.5 0-4.9 0-7.3.2v-1.6zM48.5 257c0-.3 0-.9.2-1 .5-.3 1.1-.4 1.7-.4 3.1-.4 6.1 1.1 7.7 3.8 1.2 2.8 1.8 5.9 1.7 9 0 5.2-.7 11.9-7.3 11.9-1.5.1-2.9-.7-3.5-2.1-.4-1.8-.5-3.6-.4-5.4V257h-.1zm-10.7 25.2l7.1-.2c2.3 0 4.6 0 6.9.2 4 .4 8.1-.8 11.3-3.3 2.8-2.6 4.4-6.4 4.2-10.3.2-4.3-1.6-8.5-4.9-11.4-3.2-2.6-7.3-3.9-11.5-3.6H37.8v1.5c4.2 0 4.1 1.9 4.1 5.5v14.6c0 3.5 0 5.6-4.1 5.4v1.6zm38.1-21.5c0-3.6.1-5.6-4-5.5v-1.5c2.4 0 4.7 0 7.1.2 2.4.2 5.2 0 7.7-.2v1.5c-4.2 0-4 2-4 5.5v14.7c0 3.6 0 5.2 4 5.2v1.6c-2.6 0-5.1-.2-7.6-.2s-4.8 0-7.1.2v-1.6c4.2 0 4-1.9 4-5.4l-.1-14.5zm42.3 1.1h-1.9c-.1-3.4-2.8-6-6.2-6h-.1c-1.4 0-2 0-2.4.3-.4.3-.2 1.4-.2 2.8v16.3c0 3.8 0 5.6 4.3 5.4v1.5l-7.6-.3c-2.6 0-5.2 0-7.7.2v-1.5c4.4 0 4.4-1.6 4.4-5.4v-16.2c.1-.9 0-1.8-.3-2.6-.3-.4-1.1-.4-2.3-.5-4.2-.4-5.8 2.3-6.5 6h-1.9l.3-8.2h27.8l.3 8.2zm13.7 13.4c0 3.5 0 5.6 4 5.4v1.5c-2.6 0-5.2 0-7.7-.2-2.4-.2-4.7 0-7.1.2v-1.5c4.2 0 4.1-1.9 4.1-5.4v-14.6c0-3.6 0-5.6-4.1-5.5v-1.5c2.4 0 4.7 0 7.1.2l7.7-.2v1.5c-4.2 0-4 1.9-4 5.5v6h12.8v-6c0-3.6 0-5.6-4.1-5.5v-1.5c2.3 0 4.5 0 6.8.2l7.8-.2v1.5c-4.2 0-4.1 1.9-4.1 5.5v14.6c0 3.5 0 5.6 4.1 5.4v1.5l-7.4-.2c-2.4 0-4.8 0-7.2.2v-1.5c4.2 0 4.1-1.9 4.1-5.4v-6.3h-12.8v6.3zm63.9 4.2c-6.4 5.1-15.7 4-20.7-2.4-2-2.5-3.1-5.5-3.2-8.6-.3-8.1 5.9-14.9 14-15.2h1c2.9-.1 5.8.8 8.1 2.6l.7-2.4h1.9l.4 9.1h-1.9c-.5-4.1-4-7.2-8.2-7.2-6.7 0-8.6 7.1-8.6 12.6 0 5.9 2 12.5 8.9 12.5 5 0 7.6-3.7 8.4-8.3h1.8v9.7h-1.7l-.9-2.4zm23.3-24.2c7.2 0 8.7 7.2 8.7 13.1 0 5.8-1.6 12.5-8.7 12.5s-8.5-7.5-8.5-13.1 1.6-12.5 8.5-12.5m0 27.5c8.7 0 16.2-5.5 16.2-14.7s-7.3-14.7-16-14.7-16.1 5.5-16.1 14.7c-.1 9.2 7.2 14.7 15.9 14.7m36.8-18.7l-6.4 18.6h-2.1l-8.1-23.7c-1-2.6-1-3.3-4-3.8v-1.5l6.5.2c2.6 0 5.1 0 7.6-.2v1.5c-1.4.3-3.7 0-3.7 2.1.2 1.6.7 3.3 1.3 4.8l3.6 11.5 6.2-20h1.9l6.7 19.6 2.2-7.2c.9-2.6 1.6-5.3 2-8 0-2.4-1.6-2.6-3.5-3v-1.5c1.5 0 2.9 0 4.4.2 1.5.2 3.3 0 5-.2v1.5c-2.2.3-2.6 1.3-3.4 3.4l-7.8 24.2h-2.1l-6.3-18.5zm26.7 7.2l4.1-9.9 3.8 9.9h-7.9zm-.8 2.2h9.5l.9 2.5c.4.9.7 1.9.8 2.9 0 1.9-2.3 1.7-3.6 1.9v1.5l6.8-.2 7.8.2v-1.5c-1.1 0-2.1-.4-2.9-1-.9-1.3-1.7-2.7-2.2-4.2l-9.1-22.2h-2.1l-8.4 20.6c-1.1 2.6-2.4 6.8-5.9 6.9v1.5l4.9-.2 5.4.2v-1.5c-1.6 0-3.6-.3-3.6-2.4.2-1.3.5-2.5 1-3.6l.7-1.4zm30.5-12.9v13.3c0 3.3 0 6.6 4.1 6.8v1.6c-1.7 0-3.5-.2-5.2-.2s-3.3 0-4.9.2v-1.6c3.6-.3 3.9-2.1 3.9-5.2v-17.3c-1.4-2-2-2.6-4.3-3v-1.5c1.4 0 2.6 0 4.1.2s3.2 0 4.9-.2l17.1 19.6v-11.5c0-3.3 0-6.4-4.1-6.6v-1.5c1.6 0 3.3 0 4.9.2s3.4 0 5.2-.2v1.5c-1.2.2-2.6.4-3.2 1.6-.5 1.7-.8 3.5-.7 5.2v20.9H332l-19.7-22.3z" class="st1"/>
  <g>
    <path d="M113.5 20.4h1.2c3.5 0 3.3 2.2 3.3 4.8-.1 1.4 0 2.8.5 4.2h4.6c-.4-2.1-.6-4.3-.5-6.4v-.7c-.1-2.1-2-3.7-4.1-3.6 2.6-.3 4.4-2.6 4.1-5.2 0-3.7-2.1-5.7-5.2-5.7h-8.3v21.7h4.4v-9.1zm.2-9.3h2c1.4 0 2.3.8 2.3 2.9 0 1.4-.5 3.2-2.3 3.2h-2v-6.1zM91.5 29.5h4.6V11.3h5.1V7.7H86.4v3.7h5.1zM71.4 29.9c3.4 0 7.6-.7 7.7-6.3 0-6.8-9.2-6.4-9.2-10.6v-.5c.1-1.2 1.1-2 2.3-1.9 1.8 0 2.1 1.7 2.1 3.3h4.4c.4-4.6-1.8-6.6-6.3-6.6-5.6 0-7.2 2.7-7.2 6.1 0 6.5 9.2 6.8 9.2 10.7v.4c-.1 1.2-1.1 2.2-2.3 2.1-2.6 0-2.6-1.7-2.6-3.8H65c-.3 3.8.8 7.1 6.4 7.1zM48.4 29.9c5.5 0 7.4-3.4 7.4-6.7V7.8h-4.5v15.1c0 2.4-1.3 3.7-2.9 3.7-1.7 0-2.8-1.1-2.8-3.7V7.8H41v15.4c0 4.1 2.4 6.7 7.4 6.7zM20.7 24.8h6.2l1.2 4.8h4.7L26.9 7.8h-6l-6 21.7 4.6.1 1.2-4.8zm3-12.9l2.3 9.4h-4.4l2.1-9.4zM194.3 24.8h6.2l1.2 4.8h4.8l-5.9-21.8h-6l-6.1 21.7 4.6.1 1.2-4.8zm3-12.9l2.2 9.4h-4.3l2.1-9.4zM389.7 29.1v-5.7h-12.8l-17.4-7.8v6.3l6.8 2.6c1.8.9 3.7 1.5 5.7 1.9-1.6.2-3.1.7-4.6 1.3l-7.9 3v6.2l17.4-7.8h12.8zM136.2 24.8h6.3l1.2 4.8h4.7l-5.9-21.8h-6l-6.1 21.7 4.6.1 1.2-4.8zm3-12.9l2.3 9.4h-4.4l2.1-9.4zM175.8 7.7h4.6v21.8h-4.6zM167.9 25.9h-6.8V7.7h-4.6v21.8h11.4zM380.6 262.2h-21.1v5.6l20.5.1c2.9 0 5.8.1 5.8 3.9s-2.9 4-5.8 4h-20.5v5.6h21.1c6.7 0 9.9-2.2 9.9-9.6 0-7.4-3.2-9.6-9.9-9.6zM382.1 129c2.6.1 5.1-.1 7.7-.6v-6.2h-.6c-.9 1.4-8.3 1.2-9.6 1.2-2.9 0-5 1-5.5 4.4-.5-3.8-4-4.6-7.3-4.6-5.6 0-7.3 3.7-7.3 8.6v10.7h30.2v-5.6h-13.1l.1-1.2c-.1-1.6 0-3.2.4-4.8.6-1.9 3.1-1.9 5-1.9zm-8.8 7.6H365v-4.1c0-2.1.6-3.6 4-3.6s4.2 1.5 4.3 3.3v4.4zM359.5 243.6v5.8h30.2v-5.6H384c-5.7.1-11.4.4-17.1.9 4.1-1 8.1-2.4 12-4l10.8-4.4v-5.9h-30.2v5.6h5.9c2.7 0 5.6-.1 8.5-.3 2.9-.1 5.9-.3 8.6-.5-4.1 1.1-8.1 2.4-12 4l-11 4.4zM359.5 212h30.2v5.6h-30.2zM378.9 191.4l-19.4 3.6v5.9l30.2-6.6v-7.5l-30.2-6.5v6.1l19.3 3.1c1.7.3 3.4.6 5.2.7.8 0 1.7.2 2.5.2l-2.4.3c-1.8.2-3.5.4-5.2.7zM359.5 75h30.2v5.6h-30.2zM359.5 153.8v15.9h30.2l-.1-15.9h-4.4V164h-9.3v-9.4h-4.4v9.4h-7.6v-10.2zM363.9 57.6h25.8V52h-25.8v-6.5h-4.4v18.7h4.4zM366.9 110.9c1.6 0 3.2-.5 4.6-1.4 3.1-2.3 4.7-6 7-8.9.8-1.4 2.4-2.3 4-2.3h.8c1.7.2 2.9 1.8 2.7 3.5 0 2.8-2.2 3.6-5.2 3.6H379v5.6h2.1c5.4 0 9.2-2.4 9.2-9.2 0-5.5-3-9.3-8.7-9.3-2.4-.2-4.7.8-6.3 2.6-1.8 2.2-3.4 4.5-4.9 6.9-1.1 1.7-2.3 3.2-4.3 3.2s-2.8-1.2-2.8-3.1c0-3.1 2.8-3.3 5.4-3.3l.1-5.6c-3 .1-9.9-.2-9.9 8.8 0 6 2.8 8.9 8 8.9z" class="st4"/>
    <path d="M23.7 11.9l-2.1 9.4H26zM139.2 11.9l-2.1 9.4h4.4z" class="st5"/>
    <path d="M0 36h224.5V0H0v36zM194.6 7.8h6l5.9 21.8h-4.8l-1.2-4.8h-6.2l-1.2 4.8-4.6-.1 6.1-21.7zm-18.8-.1h4.6v21.8h-4.6V7.7zm-19.3 0h4.6v18.2h6.8v3.6h-11.4V7.7zm-20 .1h6l5.9 21.8h-4.7l-1.2-4.8h-6.3l-1.2 4.8-4.6-.1 6.1-21.7zm-27.4 0h8.3c3.1 0 5.2 2 5.2 5.7.3 2.6-1.5 4.9-4.1 5.2 2.1-.1 4 1.5 4.1 3.6v.7c-.1 2.1.1 4.3.5 6.4h-4.6c-.5-1.4-.6-2.8-.5-4.2 0-2.6.2-4.8-3.3-4.8h-1.2v9.1h-4.4V7.8zm-22.7-.1h14.8v3.6h-5.1v18.2h-4.6V11.4h-5.1V7.7zM65 22.8h4.5c0 2.1 0 3.8 2.6 3.8 1.2.1 2.2-.9 2.3-2.1v-.4c0-3.9-9.2-4.2-9.2-10.7 0-3.4 1.6-6.1 7.2-6.1 4.5 0 6.7 2 6.3 6.6h-4.4c0-1.6-.3-3.3-2.1-3.3-1.2-.1-2.2.7-2.3 1.9v.5c0 4.2 9.2 3.8 9.2 10.6-.1 5.6-4.3 6.3-7.7 6.3-5.6 0-6.7-3.3-6.4-7.1zm-24-15h4.6v15.1c0 2.6 1.1 3.7 2.8 3.7 1.6 0 2.9-1.3 2.9-3.7V7.8h4.5v15.4c0 3.3-1.9 6.7-7.4 6.7-5 0-7.4-2.6-7.4-6.7V7.8zm-20.1 0h6l5.9 21.8h-4.7l-1.2-4.8h-6.2l-1.2 4.8-4.6-.1 6-21.7z" class="st5"/>
    <path d="M118 14c0-2.1-.9-2.9-2.3-2.9h-2v6.1h2c1.8 0 2.3-1.8 2.3-3.2zM197.3 11.9l-2.1 9.4h4.3zM369 128.9c-3.4 0-4 1.5-4 3.6v4.1h8.3v-4.4c-.1-1.8-.9-3.3-4.3-3.3z" class="st5"/>
    <path d="M347.2 0v296H400V0h-52.8zm12.3 30.7l7.9-3c1.5-.6 3-1.1 4.6-1.3-2-.4-3.9-1-5.7-1.9l-6.8-2.6v-6.3l17.4 7.8h12.8v5.7h-12.8l-17.4 7.8v-6.2zm0 14.8h4.4V52h25.8v5.6h-25.8v6.6h-4.4V45.5zm0 29.5h30.2v5.6h-30.2V75zm9.3 18.2l-.1 5.6c-2.6 0-5.4.2-5.4 3.3 0 1.9.8 3.1 2.8 3.1s3.2-1.5 4.3-3.2c1.5-2.4 3.1-4.7 4.9-6.9 1.6-1.8 3.9-2.8 6.3-2.6 5.7 0 8.7 3.8 8.7 9.3 0 6.8-3.8 9.2-9.2 9.2H379v-5.6h1.8c3 0 5.2-.8 5.2-3.6.2-1.7-1-3.3-2.7-3.5h-.8c-1.6 0-3.2.9-4 2.3-2.3 2.9-3.9 6.6-7 8.9-1.4.9-3 1.4-4.6 1.4-5.2 0-8-2.9-8-8.9 0-9 6.9-8.7 9.9-8.8zm7.9 42.5l-.1 1.2h13.1v5.6h-30.2v-10.7c0-4.9 1.7-8.6 7.3-8.6 3.3 0 6.8.8 7.3 4.6.5-3.4 2.6-4.4 5.5-4.4 1.3 0 8.7.2 9.6-1.2h.6v6.2c-2.6.5-5.1.7-7.7.6-1.9 0-4.4 0-5 1.9-.4 1.6-.5 3.2-.4 4.8zm-2.8 100c-2.9.2-5.8.3-8.5.3h-5.9v-5.6h30.2v5.9l-10.8 4.4c-3.9 1.6-7.9 3-12 4 5.7-.5 11.4-.8 17.1-.9h5.7v5.6h-30.2v-5.8l11-4.4c3.9-1.6 7.9-2.9 12-4-2.7.2-5.7.4-8.6.5zm10.1-45.5c-1.8-.1-3.5-.4-5.2-.7l-19.3-3.1v-6.1l30.2 6.5v7.5l-30.2 6.6V195l19.4-3.6c1.7-.3 3.4-.5 5.2-.7l2.4-.3c-.8 0-1.7-.2-2.5-.2zM371.5 164v-9.4h4.4v9.4h9.3v-10.2h4.4l.1 15.9h-30.2v-15.9h4.4V164h7.6zm18.2 48v5.6h-30.2V212h30.2zm-9.1 69.4h-21.1v-5.6H380c2.9 0 5.8-.2 5.8-4s-2.9-3.9-5.8-3.9l-20.5-.1v-5.6h21.1c6.7 0 9.9 2.2 9.9 9.6 0 7.4-3.2 9.6-9.9 9.6z" class="st5"/>
  </g>
</svg>
